<mxfile host="app.diagrams.net" modified="2023-12-20T06:43:59.085Z" agent="Mozilla/5.0 (Windows NT 10.0; Win64; x64) AppleWebKit/537.36 (KHTML, like Gecko) Chrome/120.0.0.0 Safari/537.36" etag="wN-9SW5dwwDEO7pQWBDu" version="22.1.11" type="github">
  <diagram name="Page-1" id="e7e014a7-5840-1c2e-5031-d8a46d1fe8dd">
    <mxGraphModel dx="1434" dy="1598" grid="1" gridSize="10" guides="1" tooltips="1" connect="1" arrows="1" fold="1" page="1" pageScale="1" pageWidth="1169" pageHeight="826" background="none" math="0" shadow="0">
      <root>
        <mxCell id="0" />
        <mxCell id="1" parent="0" />
        <mxCell id="eZNokqmM4gsM78GEGSY4-41" value="" style="ellipse;shape=startState;fillColor=#000000;strokeColor=#ff0000;" vertex="1" parent="1">
          <mxGeometry x="515" y="-740" width="30" height="30" as="geometry" />
        </mxCell>
        <mxCell id="eZNokqmM4gsM78GEGSY4-43" value="Oval-shaped node represents the start of the process&lt;br&gt;&lt;br&gt;Rectangular box represent action" style="shape=note2;boundedLbl=1;whiteSpace=wrap;html=1;size=25;verticalAlign=top;align=center;" vertex="1" parent="1">
          <mxGeometry x="280" y="-730" width="150" height="130" as="geometry" />
        </mxCell>
        <mxCell id="eZNokqmM4gsM78GEGSY4-45" value="" style="endArrow=classic;html=1;rounded=0;exitX=0.975;exitY=0.4;exitDx=0;exitDy=0;exitPerimeter=0;" edge="1" parent="1" source="eZNokqmM4gsM78GEGSY4-50" target="eZNokqmM4gsM78GEGSY4-60">
          <mxGeometry width="50" height="50" relative="1" as="geometry">
            <mxPoint x="584.5" y="-650" as="sourcePoint" />
            <mxPoint x="730" y="-650" as="targetPoint" />
          </mxGeometry>
        </mxCell>
        <mxCell id="eZNokqmM4gsM78GEGSY4-47" value="" style="endArrow=classic;html=1;rounded=0;" edge="1" parent="1" source="eZNokqmM4gsM78GEGSY4-50" target="eZNokqmM4gsM78GEGSY4-61">
          <mxGeometry width="50" height="50" relative="1" as="geometry">
            <mxPoint x="524.5" y="-610" as="sourcePoint" />
            <mxPoint x="530" y="-540" as="targetPoint" />
          </mxGeometry>
        </mxCell>
        <mxCell id="eZNokqmM4gsM78GEGSY4-48" value="Set Permissions" style="rounded=1;whiteSpace=wrap;html=1;" vertex="1" parent="1">
          <mxGeometry x="730" y="-530" width="120" height="60" as="geometry" />
        </mxCell>
        <mxCell id="eZNokqmM4gsM78GEGSY4-49" value="" style="endArrow=classic;html=1;rounded=0;exitX=1;exitY=0.5;exitDx=0;exitDy=0;entryX=0;entryY=0.5;entryDx=0;entryDy=0;" edge="1" parent="1" source="eZNokqmM4gsM78GEGSY4-61" target="eZNokqmM4gsM78GEGSY4-48">
          <mxGeometry width="50" height="50" relative="1" as="geometry">
            <mxPoint x="590" y="-500" as="sourcePoint" />
            <mxPoint x="690" y="-490" as="targetPoint" />
          </mxGeometry>
        </mxCell>
        <mxCell id="eZNokqmM4gsM78GEGSY4-50" value="Start" style="rounded=1;whiteSpace=wrap;html=1;" vertex="1" parent="1">
          <mxGeometry x="470" y="-674" width="120" height="60" as="geometry" />
        </mxCell>
        <mxCell id="eZNokqmM4gsM78GEGSY4-52" value="Deploy" style="rounded=1;whiteSpace=wrap;html=1;" vertex="1" parent="1">
          <mxGeometry x="470" y="-410" width="120" height="60" as="geometry" />
        </mxCell>
        <mxCell id="eZNokqmM4gsM78GEGSY4-53" value="" style="endArrow=classic;html=1;rounded=0;exitX=0.5;exitY=1;exitDx=0;exitDy=0;" edge="1" parent="1" source="eZNokqmM4gsM78GEGSY4-61" target="eZNokqmM4gsM78GEGSY4-52">
          <mxGeometry width="50" height="50" relative="1" as="geometry">
            <mxPoint x="530" y="-460" as="sourcePoint" />
            <mxPoint x="830" y="-550" as="targetPoint" />
          </mxGeometry>
        </mxCell>
        <mxCell id="eZNokqmM4gsM78GEGSY4-54" value="Monitor" style="rounded=1;whiteSpace=wrap;html=1;" vertex="1" parent="1">
          <mxGeometry x="720" y="-410" width="120" height="60" as="geometry" />
        </mxCell>
        <mxCell id="eZNokqmM4gsM78GEGSY4-55" value="" style="endArrow=classic;html=1;rounded=0;exitX=1;exitY=0.5;exitDx=0;exitDy=0;entryX=0;entryY=0.5;entryDx=0;entryDy=0;" edge="1" parent="1" source="eZNokqmM4gsM78GEGSY4-52" target="eZNokqmM4gsM78GEGSY4-54">
          <mxGeometry width="50" height="50" relative="1" as="geometry">
            <mxPoint x="780" y="-500" as="sourcePoint" />
            <mxPoint x="830" y="-550" as="targetPoint" />
          </mxGeometry>
        </mxCell>
        <mxCell id="eZNokqmM4gsM78GEGSY4-57" value="" style="ellipse;shape=endState;fillColor=#000000;strokeColor=#ff0000" vertex="1" parent="1">
          <mxGeometry x="765" y="-300" width="30" height="30" as="geometry" />
        </mxCell>
        <mxCell id="eZNokqmM4gsM78GEGSY4-58" value="" style="endArrow=classic;html=1;rounded=0;exitX=0.5;exitY=1;exitDx=0;exitDy=0;entryX=0.5;entryY=0;entryDx=0;entryDy=0;" edge="1" parent="1" source="eZNokqmM4gsM78GEGSY4-54" target="eZNokqmM4gsM78GEGSY4-57">
          <mxGeometry width="50" height="50" relative="1" as="geometry">
            <mxPoint x="780" y="-500" as="sourcePoint" />
            <mxPoint x="830" y="-550" as="targetPoint" />
          </mxGeometry>
        </mxCell>
        <mxCell id="eZNokqmM4gsM78GEGSY4-59" value="" style="endArrow=classic;html=1;rounded=0;exitX=0.5;exitY=1;exitDx=0;exitDy=0;" edge="1" parent="1" source="eZNokqmM4gsM78GEGSY4-41" target="eZNokqmM4gsM78GEGSY4-50">
          <mxGeometry width="50" height="50" relative="1" as="geometry">
            <mxPoint x="550" y="-710" as="sourcePoint" />
            <mxPoint x="525" y="-680" as="targetPoint" />
          </mxGeometry>
        </mxCell>
        <mxCell id="eZNokqmM4gsM78GEGSY4-60" value="Create Lambda Function" style="ellipse;whiteSpace=wrap;html=1;" vertex="1" parent="1">
          <mxGeometry x="740" y="-690" width="120" height="80" as="geometry" />
        </mxCell>
        <mxCell id="eZNokqmM4gsM78GEGSY4-61" value="Configure Triggers" style="rounded=1;whiteSpace=wrap;html=1;" vertex="1" parent="1">
          <mxGeometry x="470" y="-530" width="120" height="60" as="geometry" />
        </mxCell>
      </root>
    </mxGraphModel>
  </diagram>
</mxfile>
